<mxfile host="app.diagrams.net" modified="2021-10-20T06:45:39.784Z" agent="5.0 (Macintosh; Intel Mac OS X 10_15_7) AppleWebKit/537.36 (KHTML, like Gecko) Chrome/94.0.4606.71 Safari/537.36" etag="lIaSrzInKFwDb-0Fbumk" version="15.5.6" type="github">
  <diagram id="-zDivBakUk6MeRSQDc1N" name="Page-1">
    <mxGraphModel dx="1426" dy="687" grid="1" gridSize="10" guides="1" tooltips="1" connect="1" arrows="1" fold="1" page="1" pageScale="1" pageWidth="850" pageHeight="1100" math="0" shadow="0">
      <root>
        <mxCell id="0" />
        <mxCell id="1" parent="0" />
        <mxCell id="1lGOHRKM16e0FfJT9IQ3-56" value="" style="rounded=0;whiteSpace=wrap;html=1;fillColor=#dae8fc;strokeColor=#6c8ebf;" vertex="1" parent="1">
          <mxGeometry x="420" y="50" width="420" height="550" as="geometry" />
        </mxCell>
        <mxCell id="1lGOHRKM16e0FfJT9IQ3-54" value="" style="rounded=0;whiteSpace=wrap;html=1;fillColor=#d5e8d4;strokeColor=#82b366;" vertex="1" parent="1">
          <mxGeometry y="50" width="410" height="550" as="geometry" />
        </mxCell>
        <mxCell id="1lGOHRKM16e0FfJT9IQ3-48" value="" style="rounded=0;whiteSpace=wrap;html=1;" vertex="1" parent="1">
          <mxGeometry x="430" y="460" width="180" height="90" as="geometry" />
        </mxCell>
        <mxCell id="1lGOHRKM16e0FfJT9IQ3-2" value="" style="strokeColor=#dddddd;shadow=1;strokeWidth=1;rounded=1;absoluteArcSize=1;arcSize=2;" vertex="1" parent="1">
          <mxGeometry x="140" y="230" width="140" height="140" as="geometry" />
        </mxCell>
        <mxCell id="1lGOHRKM16e0FfJT9IQ3-3" value="OKE &lt;br&gt;Cluster" style="sketch=0;dashed=0;connectable=0;html=1;fillColor=#757575;strokeColor=none;shape=mxgraph.gcp2.cluster;part=1;labelPosition=right;verticalLabelPosition=middle;align=left;verticalAlign=middle;spacingLeft=5;fontSize=12;" vertex="1" parent="1lGOHRKM16e0FfJT9IQ3-2">
          <mxGeometry y="0.5" width="32" height="32" relative="1" as="geometry">
            <mxPoint x="5" y="-16" as="offset" />
          </mxGeometry>
        </mxCell>
        <mxCell id="1lGOHRKM16e0FfJT9IQ3-4" value="" style="sketch=0;html=1;aspect=fixed;strokeColor=none;shadow=0;align=center;verticalAlign=top;fillColor=#3B8DF1;shape=mxgraph.gcp2.node" vertex="1" parent="1lGOHRKM16e0FfJT9IQ3-2">
          <mxGeometry x="100" y="15.909999999999997" width="24" height="30" as="geometry" />
        </mxCell>
        <mxCell id="1lGOHRKM16e0FfJT9IQ3-5" value="" style="sketch=0;html=1;aspect=fixed;strokeColor=none;shadow=0;align=center;verticalAlign=top;fillColor=#3B8DF1;shape=mxgraph.gcp2.node" vertex="1" parent="1lGOHRKM16e0FfJT9IQ3-2">
          <mxGeometry x="100" y="56.81999999999999" width="23.27" height="29.09" as="geometry" />
        </mxCell>
        <mxCell id="1lGOHRKM16e0FfJT9IQ3-6" value="" style="sketch=0;html=1;aspect=fixed;strokeColor=none;shadow=0;align=center;verticalAlign=top;fillColor=#3B8DF1;shape=mxgraph.gcp2.node" vertex="1" parent="1lGOHRKM16e0FfJT9IQ3-2">
          <mxGeometry x="100" y="95.91000000000003" width="22.55" height="28.18" as="geometry" />
        </mxCell>
        <mxCell id="1lGOHRKM16e0FfJT9IQ3-9" style="edgeStyle=orthogonalEdgeStyle;rounded=0;orthogonalLoop=1;jettySize=auto;html=1;exitX=1;exitY=0.5;exitDx=0;exitDy=0;exitPerimeter=0;entryX=0.958;entryY=0.536;entryDx=0;entryDy=0;entryPerimeter=0;" edge="1" parent="1" source="1lGOHRKM16e0FfJT9IQ3-8" target="1lGOHRKM16e0FfJT9IQ3-4">
          <mxGeometry relative="1" as="geometry" />
        </mxCell>
        <mxCell id="1lGOHRKM16e0FfJT9IQ3-10" style="edgeStyle=orthogonalEdgeStyle;rounded=0;orthogonalLoop=1;jettySize=auto;html=1;exitX=1;exitY=0.5;exitDx=0;exitDy=0;exitPerimeter=0;" edge="1" parent="1" source="1lGOHRKM16e0FfJT9IQ3-8">
          <mxGeometry relative="1" as="geometry">
            <mxPoint x="260" y="300" as="targetPoint" />
          </mxGeometry>
        </mxCell>
        <mxCell id="1lGOHRKM16e0FfJT9IQ3-11" style="edgeStyle=orthogonalEdgeStyle;rounded=0;orthogonalLoop=1;jettySize=auto;html=1;exitX=1;exitY=0.5;exitDx=0;exitDy=0;exitPerimeter=0;entryX=0.976;entryY=0.465;entryDx=0;entryDy=0;entryPerimeter=0;" edge="1" parent="1" source="1lGOHRKM16e0FfJT9IQ3-8" target="1lGOHRKM16e0FfJT9IQ3-6">
          <mxGeometry relative="1" as="geometry" />
        </mxCell>
        <mxCell id="1lGOHRKM16e0FfJT9IQ3-8" value="" style="outlineConnect=0;dashed=0;verticalLabelPosition=bottom;verticalAlign=top;align=center;html=1;shape=mxgraph.aws3.classic_load_balancer;fillColor=#F58534;gradientColor=none;direction=west;" vertex="1" parent="1">
          <mxGeometry x="320" y="277" width="50" height="46" as="geometry" />
        </mxCell>
        <mxCell id="1lGOHRKM16e0FfJT9IQ3-13" style="edgeStyle=orthogonalEdgeStyle;rounded=0;orthogonalLoop=1;jettySize=auto;html=1;" edge="1" parent="1" source="1lGOHRKM16e0FfJT9IQ3-12" target="1lGOHRKM16e0FfJT9IQ3-8">
          <mxGeometry relative="1" as="geometry" />
        </mxCell>
        <mxCell id="1lGOHRKM16e0FfJT9IQ3-12" value="" style="shadow=0;dashed=0;html=1;strokeColor=none;fillColor=#4495D1;labelPosition=center;verticalLabelPosition=bottom;verticalAlign=top;align=center;outlineConnect=0;shape=mxgraph.veeam.2d.web_ui;" vertex="1" parent="1">
          <mxGeometry x="301.3" y="70" width="87.4" height="70" as="geometry" />
        </mxCell>
        <mxCell id="1lGOHRKM16e0FfJT9IQ3-15" value="" style="aspect=fixed;html=1;points=[];align=center;image;fontSize=12;image=img/lib/azure2/azure_stack/User_Subscriptions.svg;" vertex="1" parent="1">
          <mxGeometry x="50" y="440" width="51.52" height="50" as="geometry" />
        </mxCell>
        <mxCell id="1lGOHRKM16e0FfJT9IQ3-16" value="" style="shape=image;html=1;verticalAlign=top;verticalLabelPosition=bottom;labelBackgroundColor=#ffffff;imageAspect=0;aspect=fixed;image=https://cdn0.iconfinder.com/data/icons/font-awesome-brands-vol-1/512/jenkins-128.png" vertex="1" parent="1">
          <mxGeometry x="130" y="440" width="50" height="50" as="geometry" />
        </mxCell>
        <mxCell id="1lGOHRKM16e0FfJT9IQ3-18" style="edgeStyle=orthogonalEdgeStyle;rounded=0;orthogonalLoop=1;jettySize=auto;html=1;exitX=0.25;exitY=0;exitDx=0;exitDy=0;entryX=0.563;entryY=0.98;entryDx=0;entryDy=0;entryPerimeter=0;" edge="1" parent="1" source="1lGOHRKM16e0FfJT9IQ3-17" target="1lGOHRKM16e0FfJT9IQ3-15">
          <mxGeometry relative="1" as="geometry" />
        </mxCell>
        <mxCell id="1lGOHRKM16e0FfJT9IQ3-19" style="edgeStyle=orthogonalEdgeStyle;rounded=0;orthogonalLoop=1;jettySize=auto;html=1;exitX=0.75;exitY=0;exitDx=0;exitDy=0;entryX=0.25;entryY=1;entryDx=0;entryDy=0;" edge="1" parent="1" source="1lGOHRKM16e0FfJT9IQ3-17" target="1lGOHRKM16e0FfJT9IQ3-16">
          <mxGeometry relative="1" as="geometry" />
        </mxCell>
        <mxCell id="1lGOHRKM16e0FfJT9IQ3-17" value="" style="rounded=0;whiteSpace=wrap;html=1;fillColor=#fff2cc;strokeColor=#d6b656;" vertex="1" parent="1">
          <mxGeometry x="50" y="520" width="120" height="30" as="geometry" />
        </mxCell>
        <mxCell id="1lGOHRKM16e0FfJT9IQ3-20" value="Service Account&amp;nbsp;" style="text;html=1;strokeColor=none;fillColor=none;align=center;verticalAlign=middle;whiteSpace=wrap;rounded=0;" vertex="1" parent="1">
          <mxGeometry x="60" y="520" width="110" height="30" as="geometry" />
        </mxCell>
        <mxCell id="1lGOHRKM16e0FfJT9IQ3-21" value="&amp;lt;&amp;lt;deploy&amp;gt;&amp;gt;" style="html=1;verticalAlign=bottom;labelBackgroundColor=none;endArrow=open;endFill=0;dashed=1;rounded=0;exitX=0.505;exitY=-0.02;exitDx=0;exitDy=0;exitPerimeter=0;entryX=0;entryY=0.5;entryDx=0;entryDy=0;" edge="1" parent="1" source="1lGOHRKM16e0FfJT9IQ3-15" target="1lGOHRKM16e0FfJT9IQ3-2">
          <mxGeometry width="160" relative="1" as="geometry">
            <mxPoint x="520" y="410" as="sourcePoint" />
            <mxPoint x="680" y="410" as="targetPoint" />
            <Array as="points">
              <mxPoint x="75" y="300" />
            </Array>
          </mxGeometry>
        </mxCell>
        <mxCell id="1lGOHRKM16e0FfJT9IQ3-22" value="" style="endArrow=none;dashed=1;html=1;dashPattern=1 3;strokeWidth=2;rounded=0;exitX=0.5;exitY=0;exitDx=0;exitDy=0;" edge="1" parent="1" source="1lGOHRKM16e0FfJT9IQ3-16">
          <mxGeometry width="50" height="50" relative="1" as="geometry">
            <mxPoint x="570" y="430" as="sourcePoint" />
            <mxPoint x="80" y="400" as="targetPoint" />
            <Array as="points">
              <mxPoint x="155" y="400" />
            </Array>
          </mxGeometry>
        </mxCell>
        <mxCell id="1lGOHRKM16e0FfJT9IQ3-23" value="Developers" style="text;html=1;strokeColor=none;fillColor=none;align=center;verticalAlign=middle;whiteSpace=wrap;rounded=0;" vertex="1" parent="1">
          <mxGeometry x="10" y="490" width="60" height="30" as="geometry" />
        </mxCell>
        <mxCell id="1lGOHRKM16e0FfJT9IQ3-24" value="CI Pipelines" style="text;html=1;strokeColor=none;fillColor=none;align=center;verticalAlign=middle;whiteSpace=wrap;rounded=0;" vertex="1" parent="1">
          <mxGeometry x="160" y="490" width="60" height="30" as="geometry" />
        </mxCell>
        <mxCell id="1lGOHRKM16e0FfJT9IQ3-25" value="" style="strokeColor=#dddddd;shadow=1;strokeWidth=1;rounded=1;absoluteArcSize=1;arcSize=2;" vertex="1" parent="1">
          <mxGeometry x="570" y="230" width="140" height="140" as="geometry" />
        </mxCell>
        <mxCell id="1lGOHRKM16e0FfJT9IQ3-26" value="OKE &lt;br&gt;Cluster" style="sketch=0;dashed=0;connectable=0;html=1;fillColor=#757575;strokeColor=none;shape=mxgraph.gcp2.cluster;part=1;labelPosition=right;verticalLabelPosition=middle;align=left;verticalAlign=middle;spacingLeft=5;fontSize=12;" vertex="1" parent="1lGOHRKM16e0FfJT9IQ3-25">
          <mxGeometry y="0.5" width="32" height="32" relative="1" as="geometry">
            <mxPoint x="5" y="-16" as="offset" />
          </mxGeometry>
        </mxCell>
        <mxCell id="1lGOHRKM16e0FfJT9IQ3-27" value="" style="sketch=0;html=1;aspect=fixed;strokeColor=none;shadow=0;align=center;verticalAlign=top;fillColor=#3B8DF1;shape=mxgraph.gcp2.node" vertex="1" parent="1lGOHRKM16e0FfJT9IQ3-25">
          <mxGeometry x="100" y="15.909999999999997" width="24" height="30" as="geometry" />
        </mxCell>
        <mxCell id="1lGOHRKM16e0FfJT9IQ3-28" value="" style="sketch=0;html=1;aspect=fixed;strokeColor=none;shadow=0;align=center;verticalAlign=top;fillColor=#3B8DF1;shape=mxgraph.gcp2.node" vertex="1" parent="1lGOHRKM16e0FfJT9IQ3-25">
          <mxGeometry x="100" y="56.81999999999999" width="23.27" height="29.09" as="geometry" />
        </mxCell>
        <mxCell id="1lGOHRKM16e0FfJT9IQ3-29" value="" style="sketch=0;html=1;aspect=fixed;strokeColor=none;shadow=0;align=center;verticalAlign=top;fillColor=#3B8DF1;shape=mxgraph.gcp2.node" vertex="1" parent="1lGOHRKM16e0FfJT9IQ3-25">
          <mxGeometry x="100" y="95.91000000000003" width="22.55" height="28.18" as="geometry" />
        </mxCell>
        <mxCell id="1lGOHRKM16e0FfJT9IQ3-30" style="edgeStyle=orthogonalEdgeStyle;rounded=0;orthogonalLoop=1;jettySize=auto;html=1;exitX=1;exitY=0.5;exitDx=0;exitDy=0;exitPerimeter=0;entryX=0.958;entryY=0.536;entryDx=0;entryDy=0;entryPerimeter=0;" edge="1" parent="1" source="1lGOHRKM16e0FfJT9IQ3-33" target="1lGOHRKM16e0FfJT9IQ3-27">
          <mxGeometry relative="1" as="geometry" />
        </mxCell>
        <mxCell id="1lGOHRKM16e0FfJT9IQ3-31" style="edgeStyle=orthogonalEdgeStyle;rounded=0;orthogonalLoop=1;jettySize=auto;html=1;exitX=1;exitY=0.5;exitDx=0;exitDy=0;exitPerimeter=0;" edge="1" parent="1" source="1lGOHRKM16e0FfJT9IQ3-33">
          <mxGeometry relative="1" as="geometry">
            <mxPoint x="690" y="300" as="targetPoint" />
          </mxGeometry>
        </mxCell>
        <mxCell id="1lGOHRKM16e0FfJT9IQ3-32" style="edgeStyle=orthogonalEdgeStyle;rounded=0;orthogonalLoop=1;jettySize=auto;html=1;exitX=1;exitY=0.5;exitDx=0;exitDy=0;exitPerimeter=0;entryX=0.976;entryY=0.465;entryDx=0;entryDy=0;entryPerimeter=0;" edge="1" parent="1" source="1lGOHRKM16e0FfJT9IQ3-33" target="1lGOHRKM16e0FfJT9IQ3-29">
          <mxGeometry relative="1" as="geometry" />
        </mxCell>
        <mxCell id="1lGOHRKM16e0FfJT9IQ3-33" value="" style="outlineConnect=0;dashed=0;verticalLabelPosition=bottom;verticalAlign=top;align=center;html=1;shape=mxgraph.aws3.classic_load_balancer;fillColor=#F58534;gradientColor=none;direction=west;" vertex="1" parent="1">
          <mxGeometry x="750" y="277" width="50" height="46" as="geometry" />
        </mxCell>
        <mxCell id="1lGOHRKM16e0FfJT9IQ3-34" style="edgeStyle=orthogonalEdgeStyle;rounded=0;orthogonalLoop=1;jettySize=auto;html=1;" edge="1" parent="1" source="1lGOHRKM16e0FfJT9IQ3-35" target="1lGOHRKM16e0FfJT9IQ3-33">
          <mxGeometry relative="1" as="geometry" />
        </mxCell>
        <mxCell id="1lGOHRKM16e0FfJT9IQ3-35" value="" style="shadow=0;dashed=0;html=1;strokeColor=none;fillColor=#4495D1;labelPosition=center;verticalLabelPosition=bottom;verticalAlign=top;align=center;outlineConnect=0;shape=mxgraph.veeam.2d.web_ui;" vertex="1" parent="1">
          <mxGeometry x="731.3" y="70" width="87.4" height="70" as="geometry" />
        </mxCell>
        <mxCell id="1lGOHRKM16e0FfJT9IQ3-36" value="" style="aspect=fixed;html=1;points=[];align=center;image;fontSize=12;image=img/lib/azure2/azure_stack/User_Subscriptions.svg;" vertex="1" parent="1">
          <mxGeometry x="480" y="465" width="51.52" height="50" as="geometry" />
        </mxCell>
        <mxCell id="1lGOHRKM16e0FfJT9IQ3-42" value="&amp;lt;&amp;lt;deploy&amp;gt;&amp;gt;" style="html=1;verticalAlign=bottom;labelBackgroundColor=none;endArrow=open;endFill=0;dashed=1;rounded=0;exitX=0.505;exitY=-0.02;exitDx=0;exitDy=0;exitPerimeter=0;entryX=0;entryY=0.5;entryDx=0;entryDy=0;" edge="1" parent="1" source="1lGOHRKM16e0FfJT9IQ3-36" target="1lGOHRKM16e0FfJT9IQ3-25">
          <mxGeometry width="160" relative="1" as="geometry">
            <mxPoint x="950" y="410" as="sourcePoint" />
            <mxPoint x="1110" y="410" as="targetPoint" />
            <Array as="points">
              <mxPoint x="505" y="300" />
            </Array>
          </mxGeometry>
        </mxCell>
        <mxCell id="1lGOHRKM16e0FfJT9IQ3-44" value="Operations" style="text;html=1;strokeColor=none;fillColor=none;align=center;verticalAlign=middle;whiteSpace=wrap;rounded=0;" vertex="1" parent="1">
          <mxGeometry x="440" y="515" width="60" height="30" as="geometry" />
        </mxCell>
        <mxCell id="1lGOHRKM16e0FfJT9IQ3-49" value="Secured Deployment Host.&amp;nbsp;&amp;nbsp;" style="text;html=1;strokeColor=none;fillColor=none;align=center;verticalAlign=middle;whiteSpace=wrap;rounded=0;" vertex="1" parent="1">
          <mxGeometry x="540" y="480" width="60" height="50" as="geometry" />
        </mxCell>
        <mxCell id="1lGOHRKM16e0FfJT9IQ3-51" style="edgeStyle=orthogonalEdgeStyle;rounded=0;orthogonalLoop=1;jettySize=auto;html=1;entryX=1;entryY=0.5;entryDx=0;entryDy=0;" edge="1" parent="1" source="1lGOHRKM16e0FfJT9IQ3-50" target="1lGOHRKM16e0FfJT9IQ3-48">
          <mxGeometry relative="1" as="geometry" />
        </mxCell>
        <mxCell id="1lGOHRKM16e0FfJT9IQ3-50" value="" style="rounded=0;whiteSpace=wrap;html=1;fillColor=#fff2cc;strokeColor=#d6b656;" vertex="1" parent="1">
          <mxGeometry x="660" y="475" width="140" height="60" as="geometry" />
        </mxCell>
        <mxCell id="1lGOHRKM16e0FfJT9IQ3-52" value="Dynamic Group Policies give Access to the Cluster" style="text;html=1;strokeColor=none;fillColor=none;align=center;verticalAlign=middle;whiteSpace=wrap;rounded=0;" vertex="1" parent="1">
          <mxGeometry x="680" y="490" width="110" height="30" as="geometry" />
        </mxCell>
        <mxCell id="1lGOHRKM16e0FfJT9IQ3-55" value="Dev/Stage Environments" style="text;html=1;strokeColor=none;fillColor=none;align=center;verticalAlign=middle;whiteSpace=wrap;rounded=0;" vertex="1" parent="1">
          <mxGeometry x="10" y="60" width="90" height="30" as="geometry" />
        </mxCell>
        <mxCell id="1lGOHRKM16e0FfJT9IQ3-57" value="Production" style="text;html=1;strokeColor=none;fillColor=none;align=center;verticalAlign=middle;whiteSpace=wrap;rounded=0;" vertex="1" parent="1">
          <mxGeometry x="450" y="60" width="60" height="30" as="geometry" />
        </mxCell>
        <mxCell id="1lGOHRKM16e0FfJT9IQ3-58" value="ngfabs-dev" style="text;html=1;strokeColor=none;fillColor=none;align=center;verticalAlign=middle;whiteSpace=wrap;rounded=0;" vertex="1" parent="1">
          <mxGeometry x="250" y="140" width="90" height="30" as="geometry" />
        </mxCell>
        <mxCell id="1lGOHRKM16e0FfJT9IQ3-59" value="ngfabs-prod" style="text;html=1;strokeColor=none;fillColor=none;align=center;verticalAlign=middle;whiteSpace=wrap;rounded=0;" vertex="1" parent="1">
          <mxGeometry x="670" y="140" width="90" height="30" as="geometry" />
        </mxCell>
        <mxCell id="1lGOHRKM16e0FfJT9IQ3-60" value="Public LBR" style="text;html=1;strokeColor=none;fillColor=none;align=center;verticalAlign=middle;whiteSpace=wrap;rounded=0;" vertex="1" parent="1">
          <mxGeometry x="303.7" y="323" width="85" height="30" as="geometry" />
        </mxCell>
        <mxCell id="1lGOHRKM16e0FfJT9IQ3-61" value="Public LBR" style="text;html=1;strokeColor=none;fillColor=none;align=center;verticalAlign=middle;whiteSpace=wrap;rounded=0;" vertex="1" parent="1">
          <mxGeometry x="731.3" y="323" width="85" height="30" as="geometry" />
        </mxCell>
      </root>
    </mxGraphModel>
  </diagram>
</mxfile>
